<?xml version="1.0" encoding="UTF-8" standalone="no"?>
<svg
   xmlns:dc="http://purl.org/dc/elements/1.1/"
   xmlns:cc="http://creativecommons.org/ns#"
   xmlns:rdf="http://www.w3.org/1999/02/22-rdf-syntax-ns#"
   xmlns:svg="http://www.w3.org/2000/svg"
   xmlns="http://www.w3.org/2000/svg"
   xmlns:sodipodi="http://sodipodi.sourceforge.net/DTD/sodipodi-0.dtd"
   xmlns:inkscape="http://www.inkscape.org/namespaces/inkscape"
   width="48"
   height="48"
   viewBox="0 0 48 48"
   id="svg2"
   version="1.1"
   inkscape:version="0.48.5 r10040"
   sodipodi:docname="wrench.svg">
  <metadata
     id="metadata10">
    <rdf:RDF>
      <cc:Work
         rdf:about="">
        <dc:format>image/svg+xml</dc:format>
        <dc:type
           rdf:resource="http://purl.org/dc/dcmitype/StillImage" />
      </cc:Work>
    </rdf:RDF>
  </metadata>
  <defs
     id="defs8" />
  <sodipodi:namedview
     pagecolor="#ffffff"
     bordercolor="#666666"
     borderopacity="1"
     objecttolerance="10"
     gridtolerance="10"
     guidetolerance="10"
     inkscape:pageopacity="0"
     inkscape:pageshadow="2"
     inkscape:window-width="682"
     inkscape:window-height="702"
     id="namedview6"
     showgrid="false"
     inkscape:zoom="7.375"
     inkscape:cx="16.983686"
     inkscape:cy="22.547401"
     inkscape:window-x="683"
     inkscape:window-y="27"
     inkscape:window-maximized="0"
     inkscape:current-layer="svg2" />
  <path
     d="m 33.021208,0.01 c -8.269663,0 -14.981274,6.7116105 -14.981274,14.981273 0,1.917603 0.479401,3.715356 1.138577,5.453184 L 1.740309,37.702884 c -2.33707866,2.337079 -2.33707866,6.292135 0,8.629213 C 2.9388109,47.530599 4.4968633,48.01 6.0549157,48.01 c 1.5580525,0 3.1161049,-0.539326 4.3146063,-1.677903 L 27.627949,28.893895 c 1.677903,0.659176 3.475656,1.138577 5.453184,1.138577 8.269663,0 14.981273,-6.711611 14.981273,-14.981273 0,-0.958802 0,-1.917603 -0.179775,-2.81648 l -5.812734,5.812734 H 30.084878 V 6.0624345 L 35.897612,0.24970037 C 34.998736,0.06992509 34.039934,0.06992509 33.081133,0.06992509 z M 6.0549157,38.961311 c 1.6779027,0 2.9962547,1.318352 2.9962547,2.996255 0,1.677902 -1.318352,2.996254 -2.9962547,2.996254 -1.6779026,0 -2.9962547,-1.318352 -2.9962547,-2.996254 0,-1.677903 1.3183521,-2.996255 2.9962547,-2.996255 z"
     id="path4"
     inkscape:connector-curvature="0" />
</svg>
